<svg xmlns="http://www.w3.org/2000/svg" xmlns:xlink="http://www.w3.org/1999/xlink" viewBox="0 0 387 364" height="50" version="1.0"><defs><path d="M14.3 272.8l45-4.7 91 74.8 116.3-19.3 36.6 26.6 69.5-259L336 64.5 219.8 84l-91-75-45 4.9-69.5 259z" fill="#e6e6e6" id="reuse-0"/></defs><defs><linearGradient id="a"><stop offset="0" stop-color="#f8f8f8"/><stop offset="1" stop-color="#c4c4c4"/></linearGradient><linearGradient id="b" y2="437.7" xlink:href="#a" gradientUnits="userSpaceOnUse" x2="272.3" gradientTransform="scale(.83013) rotate(15 142.7 -320.5)" y1="437.7" x1="220.3"/><linearGradient id="c" y2="410.4" xlink:href="#a" gradientUnits="userSpaceOnUse" x2="536.3" gradientTransform="scale(.83013) rotate(15 142.7 -320.5)" y1="410.4" x1="588.4"/><linearGradient id="d" y2="161.7" gradientUnits="userSpaceOnUse" x2="195" gradientTransform="scale(.83013) rotate(15 -914.4 349.1)" y1="162.3" x1="327"><stop offset="0" stop-color="#f2f2f2"/><stop offset="1" stop-color="#a6a6a6"/></linearGradient><linearGradient id="e" y2="206.9" gradientUnits="userSpaceOnUse" x2="195" gradientTransform="scale(.83013) rotate(15 -914.4 349.1)" y1="206.9" x1="63"><stop offset="0" stop-color="#f8f8f8"/><stop offset=".8" stop-color="#c4c4c4"/><stop offset="1" stop-color="#9b9b9b"/></linearGradient><linearGradient id="f" y2="159.1" xlink:href="#a" gradientUnits="userSpaceOnUse" x2="67.1" gradientTransform="scale(.83013) rotate(15 -914.4 349.1)" y1="159.1" x1="299.1"/></defs><path d="M4.9 277.6l143.2 73.8 161 7.7 73-272.7-161-7.7L78 4.9 4.9 277.6zl143.2 73.8 161 7.7 73-272.7-161-7.7L78 4.9 4.9 277.6zl143.2 73.8 161 7.7 73-272.7-161-7.7L78 4.9 4.9 277.6zL77.9 5 5 277.6zM309 359.1l73.1-272.7-73 272.7zM5 277.6L148 351.4 4.9 277.6zM148 351.4l161 7.7-161-7.7z" stroke-linejoin="round" stroke="#333" stroke-linecap="round" stroke-miterlimit="20" stroke-width="9.790799999999999" fill="#333"/><use xlink:href="#reuse-0"/><path d="M14.3 272.8l136 70.1 153 7.3c23-86.3 46.2-172.7 69.4-259L336 64.5 219.8 84l-91-75-45 4.9-69.5 259z" fill="#e6e6e6"/><use xlink:href="#reuse-0"/><path d="M-19.8 498.9l46-4.9 71-264.6-46 4.9-71 264.6z" fill="url(#b)" transform="translate(33.7 -215.6) scale(.97908)"/><path d="M237.9 550.8l37.4 27.2 70.9-264.6-37.4-27.2-71 264.6z" fill="url(#c)" transform="translate(33.7 -215.6) scale(.97908)"/><path d="M59.4 268s32.7 13 55.4 31.8c22.8 18.7 35.6 43.1 35.6 43.1s23.3-14.8 52.4-19.6c29-4.8 63.8.3 63.8.3l69.4-259s-34.8-5.2-63.8-.4c-29 4.9-52.4 19.7-52.4 19.7S207 59.4 184.2 40.7C161.5 22 128.8 9 128.8 9L59.4 268z" fill="#e6e6e6"/><path d="M190 305.9l-70.8 264.6s23.8-15.1 53.5-20c29.6-5 65.2.3 65.2.3l70.9-264.6s-35.6-5.3-65.3-.3c-29.6 4.9-53.5 20-53.5 20z" fill="url(#d)" transform="translate(33.7 -215.6) scale(.97908)"/><path d="M97.1 229.4L26.2 494s33.4 13.3 56.6 32.4 36.4 44.1 36.4 44.1L190 306s-13.1-25-36.4-44.1c-23.2-19.1-56.6-32.4-56.6-32.4z" fill="url(#e)" transform="translate(33.7 -215.6) scale(.97908)"/><path d="M59.4 268l-45 4.8 136 70.1-2.4-4c-1.6-2.6-3.8-6.3-6.9-10.5A168.2 168.2 0 00123 307a130.5 130.5 0 00-26.4-20 230.5 230.5 0 00-18-10.1 284.2 284.2 0 00-19.1-8.8zM150.4 343l152.8 7.2-36.6-26.6-5.9-.7a271.7 271.7 0 00-46.9-1 146.6 146.6 0 00-21.6 3.7 141.7 141.7 0 00-26.5 9.3 159 159 0 00-11.2 5.7l-4.1 2.3z" fill="#b3b3b3"/><path d="M190 305.9l-70.8 264.6s14.4-31.3 41-41.6c26.5-10.4 65.2.3 65.2.3l71-264.7s-38.8-10.6-65.3-.3c-26.6 10.4-41 41.7-41 41.7z" fill="url(#f)" transform="translate(33.7 -215.6) scale(.97908)"/></svg>