<svg xmlns="http://www.w3.org/2000/svg" xmlns:xlink="http://www.w3.org/1999/xlink" version="1.1" x="0px" y="0px" viewBox="0 0 100 125" style="enable-background:new 0 0 100 100;" xml:space="preserve"><g><polygon points="61.7,44.5 69.2,44.5 65.5,33  "/><path d="M84,5H16C9.9,5,5,9.6,5,15.3V67c0,5.7,4.9,10.3,11,10.3h7.2v15.3c0,0.9,0.6,1.8,1.5,2.2c0.4,0.2,0.7,0.2,1.1,0.2   c0.6,0,1.2-0.2,1.7-0.5l22.7-17.2H84c6.1,0,11-4.6,11-10.3V15.3C95,9.6,90.1,5,84,5z M31.4,48.6c1.3,1.6,3,2.4,5,2.4   c2.1,0,3.7-0.7,4.8-2.1c0.6-0.8,1.1-1.9,1.5-3.4h6.1c-0.5,3.2-1.9,5.8-4,7.8c-2.1,2-4.9,3-8.3,3c-4.2,0-7.4-1.3-9.8-4   c-2.4-2.7-3.6-6.4-3.6-11.1c0-5.1,1.4-9,4.1-11.8c2.4-2.4,5.3-3.6,9-3.6c4.9,0,8.4,1.6,10.7,4.8c1.2,1.8,1.9,3.6,2,5.4h-6.1   c-0.4-1.4-0.9-2.5-1.5-3.2c-1.1-1.3-2.7-1.9-4.8-1.9c-2.2,0-3.9,0.9-5.1,2.7c-1.3,1.8-1.9,4.3-1.9,7.6C29.4,44.5,30.1,47,31.4,48.6   z M72.7,55.5l-1.9-6H60l-2,6h-6.4l10.4-29.2H69l10.3,29.2H72.7z"/></g><text x="0" y="115"  font-size="5px" font-weight="bold" font-family="'Helvetica Neue', Helvetica, Arial-Unicode, Arial, Sans-serif">Created by Jonathan Coutiño</text><text x="0" y="120"  font-size="5px" font-weight="bold" font-family="'Helvetica Neue', Helvetica, Arial-Unicode, Arial, Sans-serif">from the Noun Project</text></svg>