<svg xmlns="http://www.w3.org/2000/svg" xmlns:xlink="http://www.w3.org/1999/xlink" version="1.1" x="0px" y="0px" viewBox="0 0 100 125" style="enable-background:new 0 0 100 100;" xml:space="preserve"><path d="M84,5H16C9.9,5,5,9.6,5,15.3V67c0,5.7,4.9,10.3,11,10.3h7.2v15.3c0,0.9,0.6,1.8,1.5,2.2c0.4,0.2,0.7,0.2,1.1,0.2  c0.6,0,1.2-0.2,1.7-0.5l22.7-17.2H84c6.1,0,11-4.6,11-10.3V15.3C95,9.6,90.1,5,84,5z M31.8,48.6c1.3,1.6,3,2.4,5,2.4  c2.1,0,3.7-0.7,4.8-2.1c0.6-0.8,1.1-1.9,1.5-3.4h6.1c-0.5,3.2-1.9,5.8-4,7.8c-2.1,2-4.9,3-8.3,3c-4.2,0-7.4-1.3-9.8-4  c-2.4-2.7-3.6-6.4-3.6-11.1c0-5.1,1.4-9,4.1-11.8c2.4-2.4,5.3-3.6,9-3.6c4.9,0,8.4,1.6,10.7,4.8c1.2,1.8,1.9,3.6,2,5.4h-6.1  c-0.4-1.4-0.9-2.5-1.5-3.2C40.6,31.6,39,31,36.8,31c-2.2,0-3.9,0.9-5.1,2.7c-1.3,1.8-1.9,4.3-1.9,7.6C29.8,44.5,30.5,47,31.8,48.6z   M73.8,53.6c-2.1,1.8-5,2.6-8.7,2.6c-3.8,0-6.9-0.9-9.1-2.6s-3.3-4.1-3.3-7.2h5.8c0.2,1.3,0.6,2.3,1.1,3c1,1.2,2.7,1.8,5.2,1.8  c1.5,0,2.7-0.2,3.6-0.5c1.7-0.6,2.6-1.7,2.6-3.4c0-1-0.4-1.7-1.3-2.2c-0.9-0.5-2.2-1-4.1-1.4l-3.2-0.7c-3.1-0.7-5.2-1.4-6.4-2.2  c-2-1.3-3-3.5-3-6.3c0-2.6,1-4.8,2.9-6.5c1.9-1.7,4.8-2.6,8.5-2.6c3.1,0,5.8,0.8,8,2.4c2.2,1.6,3.4,4,3.5,7.1h-5.9  c-0.1-1.8-0.9-3-2.4-3.7c-1-0.5-2.2-0.7-3.6-0.7c-1.6,0-2.9,0.3-3.9,1c-1,0.6-1.4,1.5-1.4,2.7c0,1,0.5,1.8,1.4,2.3  c0.6,0.3,1.9,0.7,3.9,1.2l5.1,1.2c2.2,0.5,3.9,1.2,5,2.1c1.7,1.4,2.6,3.4,2.6,6C76.9,49.6,75.9,51.8,73.8,53.6z"/><text x="0" y="115" fill="#000000" font-size="5px" font-weight="bold" font-family="'Helvetica Neue', Helvetica, Arial-Unicode, Arial, Sans-serif">Created by Jonathan Coutiño</text><text x="0" y="120" fill="#000000" font-size="5px" font-weight="bold" font-family="'Helvetica Neue', Helvetica, Arial-Unicode, Arial, Sans-serif">from the Noun Project</text></svg>