<svg xmlns="http://www.w3.org/2000/svg" xmlns:xlink="http://www.w3.org/1999/xlink" version="1.1" x="0px" y="0px" viewBox="0 0 100 125" style="enable-background:new 0 0 100 100;" xml:space="preserve"><g><path d="M55.6,31.4h-5.6v19.1h5.6c2.9,0,4.9-1.4,6-4.3c0.6-1.6,0.9-3.4,0.9-5.6c0-3-0.5-5.3-1.4-6.8C60.2,32.2,58.3,31.4,55.6,31.4   z"/><path d="M84,5H16C9.9,5,5,9.6,5,15.3V67c0,5.7,4.9,10.3,11,10.3h7.2v15.3c0,0.9,0.6,1.8,1.5,2.2c0.4,0.2,0.7,0.2,1.1,0.2   c0.6,0,1.2-0.2,1.7-0.5l22.7-17.2H84c6.1,0,11-4.6,11-10.3V15.3C95,9.6,90.1,5,84,5z M38.3,55.5h-6.1V26.3h6.1V55.5z M66.4,50   c-2.1,3.6-5.4,5.4-9.8,5.4H44V26.3h12.6c1.8,0,3.3,0.2,4.5,0.6c2,0.7,3.7,1.9,5,3.7c1,1.5,1.7,3,2.1,4.7s0.6,3.3,0.6,4.8   C68.7,44.1,67.9,47.4,66.4,50z"/></g><text x="0" y="115" fill="#000000" font-size="5px" font-weight="bold" font-family="'Helvetica Neue', Helvetica, Arial-Unicode, Arial, Sans-serif">Created by Jonathan Coutiño</text><text x="0" y="120" fill="#000000" font-size="5px" font-weight="bold" font-family="'Helvetica Neue', Helvetica, Arial-Unicode, Arial, Sans-serif">from the Noun Project</text></svg>