<svg xmlns="http://www.w3.org/2000/svg" xmlns:xlink="http://www.w3.org/1999/xlink" version="1.1" x="0px" y="0px" viewBox="0 0 100 125" style="enable-background:new 0 0 100 100;" xml:space="preserve"><g><path d="M84,5H16C9.9,5,5,9.6,5,15.3V67c0,5.7,4.9,10.3,11,10.3h7.2v15.3c0,0.9,0.6,1.8,1.5,2.2c0.4,0.2,0.7,0.2,1.1,0.2   c0.6,0,1.2-0.2,1.7-0.5l22.7-17.2H84c6.1,0,11-4.6,11-10.3V15.3C95,9.6,90.1,5,84,5z M43.9,46.6c0,2.5-0.4,4.4-1.3,5.9   c-1.4,2.5-4,3.7-7.7,3.7s-6.2-1-7.5-3c-1.3-2-1.9-4.7-1.9-8.1v-0.7h5.8v0.7c0,2.3,0.3,3.8,0.7,4.8c0.4,0.9,1.3,1.4,2.7,1.4   c1.4,0,2.2-0.5,2.7-1.5c0.3-0.6,0.4-1.6,0.4-3V26.3h6.1V46.6z M69.3,55.5l-1.9-6H56.7l-2,6h-6.4l10.4-29.2h6.9L76,55.5H69.3z"/><polygon points="58.3,44.5 65.8,44.5 62.1,33  "/></g><text x="0" y="115" fill="#000000" font-size="5px" font-weight="bold" font-family="'Helvetica Neue', Helvetica, Arial-Unicode, Arial, Sans-serif">Created by Jonathan Coutiño</text><text x="0" y="120" fill="#000000" font-size="5px" font-weight="bold" font-family="'Helvetica Neue', Helvetica, Arial-Unicode, Arial, Sans-serif">from the Noun Project</text></svg>