<svg xmlns="http://www.w3.org/2000/svg" xmlns:xlink="http://www.w3.org/1999/xlink" version="1.1" x="0px" y="0px" viewBox="0 0 100 125" style="enable-background:new 0 0 100 100;" xml:space="preserve"><g><path d="M84,5H16C9.9,5,5,9.6,5,15.3V67c0,5.7,4.9,10.3,11,10.3h7.2v15.3c0,0.9,0.6,1.8,1.5,2.2c0.4,0.2,0.7,0.2,1.1,0.2   c0.6,0,1.2-0.2,1.7-0.5l22.7-17.2H84c6.1,0,11-4.6,11-10.3V15.3C95,9.6,90.1,5,84,5z M49.6,55.5h-5.7V35.7c0-0.6,0-1.4,0-2.4   c0-1,0-1.8,0-2.4l-5.5,24.5h-5.9L27,31c0,0.6,0,1.3,0,2.4c0,1,0,1.8,0,2.4v19.7h-5.7V26.3h8.9l5.3,23l5.3-23h8.8V55.5z M79.2,55.5   h-6.7c-0.2-0.6-0.3-1.2-0.4-1.6c-0.2-0.8-0.2-1.7-0.3-2.5l0-2.7c0-1.9-0.3-3.1-1-3.7C70.2,44.4,69,44,67.3,44h-6v11.4h-6V26.3h14   c2,0,3.5,0.3,4.6,0.8c1.1,0.5,2,1.1,2.7,2c0.6,0.7,1.1,1.6,1.5,2.5s0.5,1.9,0.5,3.1c0,1.4-0.4,2.8-1,4.1C77,40,75.8,41,74.2,41.5   c1.3,0.5,2.3,1.3,2.9,2.3c0.6,1,0.8,2.5,0.8,4.6v2c0,1.3,0.1,2.2,0.2,2.7c0.2,0.8,0.5,1.3,1.1,1.7V55.5z"/><path d="M70.9,31.9c-0.6-0.3-1.6-0.5-2.8-0.5h-6.7v7.8h6.6c1.3,0,2.3-0.2,2.9-0.5c1.2-0.6,1.7-1.7,1.7-3.3   C72.6,33.7,72,32.5,70.9,31.9z"/></g><text x="0" y="115" fill="#000000" font-size="5px" font-weight="bold" font-family="'Helvetica Neue', Helvetica, Arial-Unicode, Arial, Sans-serif">Created by Jonathan Coutiño</text><text x="0" y="120" fill="#000000" font-size="5px" font-weight="bold" font-family="'Helvetica Neue', Helvetica, Arial-Unicode, Arial, Sans-serif">from the Noun Project</text></svg>