<svg xmlns="http://www.w3.org/2000/svg" xmlns:xlink="http://www.w3.org/1999/xlink" version="1.1" x="0px" y="0px" viewBox="0 0 100 125" style="enable-background:new 0 0 100 100;" xml:space="preserve"><path d="M84,5H16C9.9,5,5,9.6,5,15.3V67c0,5.7,4.9,10.3,11,10.3h7.2v15.3c0,0.9,0.6,1.8,1.5,2.2c0.4,0.2,0.7,0.2,1.1,0.2  c0.6,0,1.2-0.2,1.7-0.5l22.7-17.2H84c6.1,0,11-4.6,11-10.3V15.3C95,9.6,90.1,5,84,5z M51.1,55.5h-5.7V35.7c0-0.6,0-1.4,0-2.4  c0-1,0-1.8,0-2.4l-5.5,24.5H34L28.5,31c0,0.6,0,1.3,0,2.4c0,1,0,1.8,0,2.4v19.7h-5.7V26.3h8.9l5.3,23l5.3-23h8.8V55.5z M70.5,44.5  v10.9h-6.1V44.5L54.3,26.3h7.2L67.6,39l5.8-12.7h6.9L70.5,44.5z"/><text x="0" y="115"  font-size="5px" font-weight="bold" font-family="'Helvetica Neue', Helvetica, Arial-Unicode, Arial, Sans-serif">Created by Jonathan Coutiño</text><text x="0" y="120"  font-size="5px" font-weight="bold" font-family="'Helvetica Neue', Helvetica, Arial-Unicode, Arial, Sans-serif">from the Noun Project</text></svg>