<svg xmlns="http://www.w3.org/2000/svg" xmlns:xlink="http://www.w3.org/1999/xlink" version="1.1" x="0px" y="0px" viewBox="0 0 100 125" style="enable-background:new 0 0 100 100;" xml:space="preserve"><g><path d="M64.8,30.6c-2.4,0-4.3,0.9-5.8,2.7c-1.4,1.8-2.2,4.3-2.2,7.6s0.7,5.8,2.2,7.6c1.4,1.8,3.4,2.7,5.8,2.7s4.3-0.9,5.8-2.7   c1.4-1.8,2.1-4.3,2.1-7.6c0-3.3-0.7-5.8-2.1-7.6C69.1,31.5,67.2,30.6,64.8,30.6z"/><path d="M84,5H16C9.9,5,5,9.6,5,15.3V67c0,5.7,4.9,10.3,11,10.3h7.2v15.3c0,0.9,0.6,1.8,1.5,2.2c0.4,0.2,0.7,0.2,1.1,0.2   c0.6,0,1.2-0.2,1.7-0.5l22.7-17.2H84c6.1,0,11-4.6,11-10.3V15.3C95,9.6,90.1,5,84,5z M46.2,55.5h-6.1L28.2,34.8v20.7h-5.7V26.3h6.4   l11.6,20.4V26.3h5.7V55.5z M74.4,52.9c-2.2,2.3-5.4,3.4-9.6,3.4c-4.2,0-7.4-1.1-9.6-3.4c-3-2.8-4.4-6.8-4.4-12   c0-5.3,1.5-9.4,4.4-12c2.2-2.3,5.4-3.4,9.6-3.4c4.2,0,7.4,1.1,9.6,3.4c2.9,2.7,4.4,6.7,4.4,12C78.8,46.1,77.3,50.1,74.4,52.9z"/></g><text x="0" y="115"  font-size="5px" font-weight="bold" font-family="'Helvetica Neue', Helvetica, Arial-Unicode, Arial, Sans-serif">Created by Jonathan Coutiño</text><text x="0" y="120"  font-size="5px" font-weight="bold" font-family="'Helvetica Neue', Helvetica, Arial-Unicode, Arial, Sans-serif">from the Noun Project</text></svg>