<svg xmlns="http://www.w3.org/2000/svg" xmlns:xlink="http://www.w3.org/1999/xlink" version="1.1" x="0px" y="0px" viewBox="0 0 100 125" style="enable-background:new 0 0 100 100;" xml:space="preserve"><g><g><path d="M38.6,33.7h-3.7v5.8h3.7c0.9,0,1.7-0.2,2.2-0.7c0.5-0.5,0.8-1.2,0.8-2.2c0-1-0.3-1.8-0.8-2.2    C40.3,33.9,39.5,33.7,38.6,33.7z"/><path d="M84,5H16C9.9,5,5,9.6,5,15.3V67c0,5.7,4.9,10.3,11,10.3h7.2v15.3c0,0.9,0.6,1.8,1.5,2.2c0.4,0.2,0.7,0.2,1.1,0.2    c0.6,0,1.2-0.2,1.7-0.5l22.7-17.2H84c6.1,0,11-4.6,11-10.3V15.3C95,9.6,90.1,5,84,5z M43.9,41.5c-1.2,1-2.8,1.4-4.9,1.4h-4.1V50    h-4.1V30.3h8.5c2,0,3.5,0.5,4.7,1.5c1.2,1,1.7,2.6,1.7,4.7C45.7,38.9,45.1,40.5,43.9,41.5z M62.9,50H49V30.3h4.1v16.2h9.9V50z     M69.5,50h-4.1V30.3h4.1V50z"/></g></g><text x="0" y="115"  font-size="5px" font-weight="bold" font-family="'Helvetica Neue', Helvetica, Arial-Unicode, Arial, Sans-serif">Created by Jonathan Coutiño</text><text x="0" y="120"  font-size="5px" font-weight="bold" font-family="'Helvetica Neue', Helvetica, Arial-Unicode, Arial, Sans-serif">from the Noun Project</text></svg>