<svg xmlns="http://www.w3.org/2000/svg" xmlns:xlink="http://www.w3.org/1999/xlink" version="1.1" x="0px" y="0px" viewBox="0 0 100 125" style="enable-background:new 0 0 100 100;" xml:space="preserve"><g><path d="M38.8,31.4h-5.5V40h5.5c1.4,0,2.5-0.4,3.2-1s1.2-1.8,1.2-3.3c0-1.5-0.4-2.6-1.2-3.2C41.3,31.7,40.2,31.4,38.8,31.4z"/><path d="M84,5H16C9.9,5,5,9.6,5,15.3V67c0,5.7,4.9,10.3,11,10.3h7.2v15.3c0,0.9,0.6,1.8,1.5,2.2c0.4,0.2,0.7,0.2,1.1,0.2   c0.6,0,1.2-0.2,1.7-0.5l22.7-17.2H84c6.1,0,11-4.6,11-10.3V15.3C95,9.6,90.1,5,84,5z M46.7,42.9C45,44.3,42.5,45,39.4,45h-6.1v10.5   h-6.1V26.3h12.5c2.9,0,5.2,0.8,6.9,2.3s2.6,3.8,2.6,7C49.3,39,48.4,41.4,46.7,42.9z M75.4,31.5h-8.7v24h-6.1v-24h-8.8v-5.2h23.6   V31.5z"/></g><text x="0" y="115" fill="#000000" font-size="5px" font-weight="bold" font-family="'Helvetica Neue', Helvetica, Arial-Unicode, Arial, Sans-serif">Created by Jonathan Coutiño</text><text x="0" y="120" fill="#000000" font-size="5px" font-weight="bold" font-family="'Helvetica Neue', Helvetica, Arial-Unicode, Arial, Sans-serif">from the Noun Project</text></svg>