<svg xmlns="http://www.w3.org/2000/svg" xmlns:xlink="http://www.w3.org/1999/xlink" version="1.1" x="0px" y="0px" viewBox="0 0 100 125" style="enable-background:new 0 0 100 100;" xml:space="preserve"><g><path d="M64.8,30.6c-2.4,0-4.3,0.9-5.8,2.7c-1.4,1.8-2.2,4.3-2.2,7.6s0.7,5.8,2.2,7.6c1.4,1.8,3.4,2.7,5.8,2.7s4.3-0.9,5.8-2.7   c1.4-1.8,2.1-4.3,2.1-7.6c0-3.3-0.7-5.8-2.1-7.6C69.1,31.5,67.2,30.6,64.8,30.6z"/><path d="M38.2,31.9c-0.6-0.3-1.6-0.5-2.8-0.5h-6.7v7.8h6.6c1.3,0,2.3-0.2,2.9-0.5c1.2-0.6,1.7-1.7,1.7-3.3   C39.9,33.7,39.4,32.5,38.2,31.9z"/><path d="M84,5H16C9.9,5,5,9.6,5,15.3V67c0,5.7,4.9,10.3,11,10.3h7.2v15.3c0,0.9,0.6,1.8,1.5,2.2c0.4,0.2,0.7,0.2,1.1,0.2   c0.6,0,1.2-0.2,1.7-0.5l22.7-17.2H84c6.1,0,11-4.6,11-10.3V15.3C95,9.6,90.1,5,84,5z M46.5,55.5h-6.7c-0.2-0.6-0.3-1.2-0.4-1.6   c-0.2-0.8-0.2-1.7-0.3-2.5l0-2.7c0-1.9-0.3-3.1-1-3.7c-0.6-0.6-1.8-0.9-3.5-0.9h-6v11.4h-6V26.3h14c2,0,3.5,0.3,4.6,0.8   c1.1,0.5,2,1.1,2.7,2c0.6,0.7,1.1,1.6,1.5,2.5s0.5,1.9,0.5,3.1c0,1.4-0.4,2.8-1,4.1c-0.7,1.3-1.9,2.3-3.5,2.8   c1.3,0.5,2.3,1.3,2.9,2.3c0.6,1,0.8,2.5,0.8,4.6v2c0,1.3,0.1,2.2,0.2,2.7c0.2,0.8,0.5,1.3,1.1,1.7V55.5z M74.4,52.9   c-2.2,2.3-5.4,3.4-9.6,3.4c-4.2,0-7.4-1.1-9.6-3.4c-3-2.8-4.4-6.8-4.4-12c0-5.3,1.5-9.4,4.4-12c2.2-2.3,5.4-3.4,9.6-3.4   c4.2,0,7.4,1.1,9.6,3.4c2.9,2.7,4.4,6.7,4.4,12C78.8,46.1,77.3,50.1,74.4,52.9z"/></g><text x="0" y="115" fill="#000000" font-size="5px" font-weight="bold" font-family="'Helvetica Neue', Helvetica, Arial-Unicode, Arial, Sans-serif">Created by Jonathan Coutiño</text><text x="0" y="120" fill="#000000" font-size="5px" font-weight="bold" font-family="'Helvetica Neue', Helvetica, Arial-Unicode, Arial, Sans-serif">from the Noun Project</text></svg>