<svg xmlns="http://www.w3.org/2000/svg" xmlns:xlink="http://www.w3.org/1999/xlink" version="1.1" x="0px" y="0px" viewBox="0 0 100 125" style="enable-background:new 0 0 100 100;" xml:space="preserve"><g><path d="M39.4,31.9c-0.6-0.3-1.6-0.5-2.8-0.5h-6.7v7.8h6.6c1.3,0,2.3-0.2,2.9-0.5c1.2-0.6,1.7-1.7,1.7-3.3   C41,33.7,40.5,32.5,39.4,31.9z"/><path d="M84,5H16C9.9,5,5,9.6,5,15.3V67c0,5.7,4.9,10.3,11,10.3h7.2v15.3c0,0.9,0.6,1.8,1.5,2.2c0.4,0.2,0.7,0.2,1.1,0.2   c0.6,0,1.2-0.2,1.7-0.5l22.7-17.2H84c6.1,0,11-4.6,11-10.3V15.3C95,9.6,90.1,5,84,5z M47.6,55.5h-6.7c-0.2-0.6-0.3-1.2-0.4-1.6   c-0.2-0.8-0.2-1.7-0.3-2.5l0-2.7c0-1.9-0.3-3.1-1-3.7c-0.6-0.6-1.8-0.9-3.5-0.9h-6v11.4h-6V26.3h14c2,0,3.5,0.3,4.6,0.8   c1.1,0.5,2,1.1,2.7,2c0.6,0.7,1.1,1.6,1.5,2.5s0.5,1.9,0.5,3.1c0,1.4-0.4,2.8-1,4.1c-0.7,1.3-1.9,2.3-3.5,2.8   c1.3,0.5,2.3,1.3,2.9,2.3c0.6,1,0.8,2.5,0.8,4.6v2c0,1.3,0.1,2.2,0.2,2.7c0.2,0.8,0.5,1.3,1.1,1.7V55.5z M76.4,44.2   c0,3.1-0.5,5.5-1.4,7.2c-1.8,3.2-5.2,4.8-10.3,4.8c-5,0-8.5-1.6-10.3-4.8c-1-1.7-1.4-4.1-1.4-7.2V26.3h6.2v17.9   c0,2,0.2,3.5,0.7,4.4c0.7,1.6,2.3,2.5,4.8,2.5c2.5,0,4.1-0.8,4.8-2.5c0.5-0.9,0.7-2.4,0.7-4.4V26.3h6.2V44.2z"/></g><text x="0" y="115" fill="#000000" font-size="5px" font-weight="bold" font-family="'Helvetica Neue', Helvetica, Arial-Unicode, Arial, Sans-serif">Created by Jonathan Coutiño</text><text x="0" y="120" fill="#000000" font-size="5px" font-weight="bold" font-family="'Helvetica Neue', Helvetica, Arial-Unicode, Arial, Sans-serif">from the Noun Project</text></svg>