<svg xmlns="http://www.w3.org/2000/svg" xmlns:xlink="http://www.w3.org/1999/xlink" version="1.1" x="0px" y="0px" viewBox="0 0 100 125" style="enable-background:new 0 0 100 100;" xml:space="preserve"><g><g><polygon points="46.7,42.5 51.8,42.5 49.3,34.8   "/><path d="M84,5H16C9.9,5,5,9.6,5,15.3V67c0,5.7,4.9,10.3,11,10.3h7.2v15.3c0,0.9,0.6,1.8,1.5,2.2c0.4,0.2,0.7,0.2,1.1,0.2    c0.6,0,1.2-0.2,1.7-0.5l22.7-17.2H84c6.1,0,11-4.6,11-10.3V15.3C95,9.6,90.1,5,84,5z M36.4,48.7c-1.4,1.2-3.4,1.8-5.9,1.8    c-2.6,0-4.6-0.6-6.1-1.8s-2.2-2.8-2.2-4.8H26c0.1,0.9,0.4,1.6,0.8,2c0.7,0.8,1.9,1.2,3.5,1.2c1,0,1.8-0.1,2.4-0.3    c1.2-0.4,1.8-1.2,1.8-2.3c0-0.7-0.3-1.2-0.9-1.5c-0.6-0.3-1.5-0.7-2.7-0.9l-2.1-0.5c-2.1-0.5-3.5-1-4.3-1.5c-1.3-0.9-2-2.3-2-4.3    c0-1.8,0.6-3.2,2-4.4c1.3-1.2,3.2-1.8,5.7-1.8c2.1,0,3.9,0.6,5.4,1.7c1.5,1.1,2.3,2.7,2.3,4.8h-4c-0.1-1.2-0.6-2-1.6-2.5    c-0.7-0.3-1.5-0.5-2.5-0.5c-1.1,0-2,0.2-2.6,0.6c-0.6,0.4-1,1-1,1.8c0,0.7,0.3,1.2,1,1.6c0.4,0.2,1.3,0.5,2.6,0.8l3.5,0.8    c1.5,0.4,2.7,0.8,3.4,1.4c1.2,0.9,1.8,2.3,1.8,4C38.5,46,37.8,47.5,36.4,48.7z M54.2,50l-1.3-4.1h-7.3L44.3,50H40l7-19.7h4.7    l7,19.7H54.2z M77.1,50H73l-8-14v14h-3.8V30.3h4.3L73.2,44V30.3h3.8V50z"/></g></g><text x="0" y="115"  font-size="5px" font-weight="bold" font-family="'Helvetica Neue', Helvetica, Arial-Unicode, Arial, Sans-serif">Created by Jonathan Coutiño</text><text x="0" y="120"  font-size="5px" font-weight="bold" font-family="'Helvetica Neue', Helvetica, Arial-Unicode, Arial, Sans-serif">from the Noun Project</text></svg>