<svg xmlns="http://www.w3.org/2000/svg" xmlns:xlink="http://www.w3.org/1999/xlink" version="1.1" x="0px" y="0px" viewBox="0 0 100 125" style="enable-background:new 0 0 100 100;" xml:space="preserve"><path d="M84,5H16C9.9,5,5,9.6,5,15.3V67c0,5.7,4.9,10.3,11,10.3h7.2v15.3c0,0.9,0.6,1.8,1.5,2.2c0.4,0.2,0.7,0.2,1.1,0.2  c0.6,0,1.2-0.2,1.7-0.5l22.7-17.2H84c6.1,0,11-4.6,11-10.3V15.3C95,9.6,90.1,5,84,5z M46,44.2c0,3.1-0.5,5.5-1.4,7.2  c-1.8,3.2-5.2,4.8-10.3,4.8c-5,0-8.5-1.6-10.3-4.8c-1-1.7-1.4-4.1-1.4-7.2V26.3h6.2v17.9c0,2,0.2,3.5,0.7,4.4  c0.7,1.6,2.3,2.5,4.8,2.5c2.5,0,4.1-0.8,4.8-2.5c0.5-0.9,0.7-2.4,0.7-4.4V26.3H46V44.2z M77.6,55.5h-4L73,51.8  c-1.2,1.4-2.2,2.4-3.2,2.9c-1.6,1-3.6,1.5-5.9,1.5c-3.9,0-7-1.3-9.5-4c-2.6-2.7-3.9-6.4-3.9-11c0-4.7,1.3-8.5,3.9-11.4  s6-4.3,10.3-4.3c3.7,0,6.7,0.9,8.9,2.8c2.2,1.9,3.5,4.2,3.9,7h-6c-0.5-2-1.6-3.4-3.4-4.2c-1-0.4-2.1-0.7-3.3-0.7  c-2.4,0-4.3,0.9-5.8,2.7c-1.5,1.8-2.3,4.4-2.3,8c0,3.6,0.8,6.1,2.5,7.6s3.5,2.2,5.6,2.2c2,0,3.7-0.6,5-1.8c1.3-1.2,2.1-2.7,2.4-4.6  h-6.8v-4.9h12.2V55.5z"/><text x="0" y="115" fill="#000000" font-size="5px" font-weight="bold" font-family="'Helvetica Neue', Helvetica, Arial-Unicode, Arial, Sans-serif">Created by Jonathan Coutiño</text><text x="0" y="120" fill="#000000" font-size="5px" font-weight="bold" font-family="'Helvetica Neue', Helvetica, Arial-Unicode, Arial, Sans-serif">from the Noun Project</text></svg>