<?xml version="1.0" encoding="iso-8859-1"?>
<!-- Generator: Adobe Illustrator 17.1.0, SVG Export Plug-In . SVG Version: 6.00 Build 0)  -->
<!DOCTYPE svg PUBLIC "-//W3C//DTD SVG 1.1//EN" "http://www.w3.org/Graphics/SVG/1.1/DTD/svg11.dtd">
<svg xmlns="http://www.w3.org/2000/svg" xmlns:xlink="http://www.w3.org/1999/xlink" version="1.1" id="Capa_1" x="0px" y="0px" viewBox="0 0 368 368" style="enable-background:new 0 0 368 368;" xml:space="preserve" width="512px" height="512px">
<g>
	<path d="M353,197.5H219c-8.271,0-15,6.729-15,15v123c0,8.271,6.729,15,15,15h134c8.271,0,15-6.729,15-15v-123   C368,204.229,361.271,197.5,353,197.5z M267.973,287.325c1.072,3.497,2.576,6.438,4.471,8.738c1.837,2.231,4.001,3.885,6.618,5.045   c2.661,1.181,5.708,1.792,9.06,1.792c2.705,0,5.171-0.303,7.331-0.949c1.989-0.595,3.707-1.421,5.111-2.552   c1.384-1.116,2.465-2.347,3.305-3.967c0.844-1.631,1.371-3.409,1.562-5.672l0.09-0.838c0,0,0.387-3.423,3.981-3.423   c4.621,0,10.5,0,14,0c4.719,0,4.099,4.036,4.099,4.036l-0.118,1.139c-0.439,5.129-1.76,9.404-3.925,13.485   c-2.166,4.083-5.051,7.598-8.575,10.447c-3.485,2.818-7.579,4.976-12.168,6.416c-4.466,1.401-9.345,2.111-14.502,2.111   c-6.634,0-12.757-1.162-18.202-3.455c-5.522-2.325-10.294-5.711-14.184-10.063c-3.839-4.294-6.819-9.511-8.855-15.505   c-1.992-5.861-3.003-12.45-3.003-19.582c0-7.137,1.024-13.732,3.041-19.601c2.061-5.992,5.052-11.196,8.892-15.466   c3.883-4.32,8.646-7.701,14.154-10.045c5.452-2.319,11.561-3.498,18.158-3.498c4.972,0,9.745,0.732,14.188,2.188   c4.483,1.472,8.533,3.574,12.036,6.274c3.573,2.754,6.532,6.104,8.795,10.005c2.302,3.972,3.697,8.371,4.147,13.176l0.155,1.676   c0,0,0.534,4.259-4.675,4.259c-3.448,0-9.076,0-13.792,0c-3.458,0-3.638-3.387-3.638-3.387l-0.107-1.773   c-0.116-1.834-0.568-3.243-1.379-4.658c-0.865-1.504-1.97-2.753-3.377-3.816c-1.459-1.101-3.228-1.971-5.256-2.583   c-2.136-0.643-4.503-0.97-7.035-0.97c-3.448,0-6.562,0.593-9.254,1.764c-2.638,1.147-4.819,2.781-6.669,4.991   c-1.906,2.277-3.413,5.187-4.479,8.647c-1.12,3.633-1.688,7.946-1.688,12.818C266.283,279.366,266.852,283.671,267.973,287.325z" fill="#9B9B9B"/>
	<path d="M179.829,93.5h9.173c1.1,0,1.679-0.982,1.287-2.01l-5.336-14.133c-0.392-1.028-1.019-1.022-1.393,0.012l-5.052,14.109   C178.135,92.513,178.729,93.5,179.829,93.5z" fill="#9B9B9B"/>
	<path d="M118,170.5h134c8.271,0,15-6.729,15-15v-123c0-8.271-6.729-15-15-15H118c-8.271,0-15,6.729-15,15v123   C103,163.771,109.729,170.5,118,170.5z M139.141,135.492l34.666-90.195c0.394-1.027,1.617-1.797,2.717-1.797h15.335   c1.1,0,2.34,0.692,2.756,1.711l36.872,90.367c0.416,1.018-0.144,1.922-1.244,1.922h-20.241c-1.1,0-2.325-0.98-2.721-2.006   l-8.224-21.199c-0.397-1.026-1.621-1.795-2.721-1.795h-23.448c-1.1,0-2.312,0.703-2.692,1.735l-7.839,21.318   c-0.381,1.032-1.592,1.947-2.692,1.947h-19.24C139.324,137.5,138.747,136.519,139.141,135.492z" fill="#9B9B9B"/>
	<path d="M149,197.5H15c-8.271,0-15,6.729-15,15v123c0,8.271,6.729,15,15,15h134c8.271,0,15-6.729,15-15v-123   C164,204.229,157.271,197.5,149,197.5z M111.407,316.287c-6.965,5.323-16.476,8.213-28.529,8.213h-32.59   c0,0-8.288-0.458-8.288-8.274c0-21.346,0-62.085,0-85.385c0-5.927,5.917-6.341,5.917-6.341h32.812   c11.856,0,20.971,2.235,27.343,6.29c6.373,4.056,9.559,9.874,9.559,17.247c0,5.346-1.918,10.075-5.796,14.084   c-3.879,4.01-8.836,6.85-14.836,8.416v0.276c8,0.876,13.576,3.48,18.096,7.811c4.52,4.333,6.77,9.723,6.77,15.944   C121.866,303.65,118.373,310.964,111.407,316.287z" fill="#9B9B9B"/>
	<path d="M92.03,284.867c-3.088-2.258-7.399-3.367-12.931-3.367H66v26h12.951c5.531,0,9.866-1.153,13.005-3.55   c3.137-2.396,4.705-5.636,4.705-9.783C96.661,290.204,95.116,287.126,92.03,284.867z" fill="#9B9B9B"/>
	<path d="M88.177,261.332c2.84-2.235,4.261-5.152,4.261-9.069c0-7.281-5.829-10.763-17.488-10.763H66v23h10.506   C81.445,264.5,85.335,263.568,88.177,261.332z" fill="#9B9B9B"/>
</g>
<g>
</g>
<g>
</g>
<g>
</g>
<g>
</g>
<g>
</g>
<g>
</g>
<g>
</g>
<g>
</g>
<g>
</g>
<g>
</g>
<g>
</g>
<g>
</g>
<g>
</g>
<g>
</g>
<g>
</g>
</svg>
