<svg class="icon" viewBox="0 0 1024 1024" xmlns="http://www.w3.org/2000/svg" width="200" height="200"><path d="M495 990c-10 0-17-7-17-17V17c0-10 7-17 17-17s17 7 17 17v956c0 10-7 17-17 17z" fill="#9b9b9b"/><path d="M973 512H17c-10 0-17-7-17-17s7-17 17-17h956c10 0 17 7 17 17s-7 17-17 17zM870 239H119c-10 0-17-7-17-17s7-17 17-17h751c11 0 17 7 17 17s-6 17-17 17zM495 751H85c-10 0-17-7-17-17s7-17 17-17h410c10 0 17 7 17 17s-7 17-17 17z" fill="#9b9b9b"/><path d="M495 990c-160 0-290-222-290-495S335 0 495 0s290 222 290 495c0 10-7 17-17 17s-17-7-17-17c0-253-116-461-256-461S239 242 239 495s116 461 256 461c10 0 17 7 17 17s-7 17-17 17z" fill="#9b9b9b"/><path d="M495 990a495 495 0 11495-495c0 17 0 34-4 55 0 10-10 17-20 13-10 0-17-10-14-20 4-17 4-34 4-48 0-253-208-461-461-461S34 242 34 495s208 461 461 461c20 0 41 0 65-7 10 0 17 7 20 14 0 10-7 17-13 20-28 3-52 7-72 7zM734 887c-4 0-10 0-14-3-7-7-7-17 0-24l137-136c7-7 17-7 24 0s6 17 0 24L744 884c0 3-7 3-10 3z" fill="#9b9b9b"/><path d="M870 887c-3 0-10 0-13-3L720 748c-7-7-7-18 0-24s17-7 24 0l137 136c6 7 6 17 0 24 0 3-7 3-11 3z" fill="#9b9b9b"/><path d="M802 1024a221 221 0 110-444 221 221 0 110 444zm0-410c-102 0-188 86-188 188s86 188 188 188 188-85 188-188-85-188-188-188z" fill="#9b9b9b"/></svg>