<svg t="1586954701876" class="icon" viewBox="0 0 1024 1024" version="1.1" xmlns="http://www.w3.org/2000/svg" p-id="33421" width="200" height="200"><path d="M494.933333 989.866667c-10.24 0-17.066667-6.826667-17.066666-17.066667V17.066667c0-10.24 6.826667-17.066667 17.066666-17.066667s17.066667 6.826667 17.066667 17.066667v955.733333c0 10.24-6.826667 17.066667-17.066667 17.066667z" fill="#9b9b9b" p-id="33422"></path><path d="M972.8 512H17.066667c-10.24 0-17.066667-6.826667-17.066667-17.066667s6.826667-17.066667 17.066667-17.066666h955.733333c10.24 0 17.066667 6.826667 17.066667 17.066666s-6.826667 17.066667-17.066667 17.066667zM870.4 238.933333h-750.933333c-10.24 0-17.066667-6.826667-17.066667-17.066666s6.826667-17.066667 17.066667-17.066667h750.933333c10.24 0 17.066667 6.826667 17.066667 17.066667s-6.826667 17.066667-17.066667 17.066666zM494.933333 750.933333h-409.6c-10.24 0-17.066667-6.826667-17.066666-17.066666s6.826667-17.066667 17.066666-17.066667h409.6c10.24 0 17.066667 6.826667 17.066667 17.066667s-6.826667 17.066667-17.066667 17.066666z" fill="#9b9b9b" p-id="33423"></path><path d="M494.933333 989.866667C334.506667 989.866667 204.8 768 204.8 494.933333S334.506667 0 494.933333 0 785.066667 221.866667 785.066667 494.933333c0 10.24-6.826667 17.066667-17.066667 17.066667s-17.066667-6.826667-17.066667-17.066667C750.933333 242.346667 634.88 34.133333 494.933333 34.133333S238.933333 242.346667 238.933333 494.933333 354.986667 955.733333 494.933333 955.733333c10.24 0 17.066667 6.826667 17.066667 17.066667s-6.826667 17.066667-17.066667 17.066667z" fill="#9b9b9b" p-id="33424"></path><path d="M494.933333 989.866667C221.866667 989.866667 0 768 0 494.933333S221.866667 0 494.933333 0 989.866667 221.866667 989.866667 494.933333c0 17.066667 0 34.133333-3.413334 54.613334 0 10.24-10.24 17.066667-20.48 13.653333-10.24 0-17.066667-10.24-13.653333-20.48 3.413333-17.066667 3.413333-34.133333 3.413333-47.786667C955.733333 242.346667 747.52 34.133333 494.933333 34.133333S34.133333 242.346667 34.133333 494.933333 242.346667 955.733333 494.933333 955.733333c20.48 0 40.96 0 64.853334-6.826666 10.24 0 17.066667 6.826667 20.48 13.653333 0 10.24-6.826667 17.066667-13.653334 20.48-27.306667 3.413333-51.2 6.826667-71.68 6.826667z" fill="#9b9b9b" p-id="33425"></path><path d="M733.866667 887.466667c-3.413333 0-10.24 0-13.653334-3.413334-6.826667-6.826667-6.826667-17.066667 0-23.893333l136.533334-136.533333c6.826667-6.826667 17.066667-6.826667 23.893333 0s6.826667 17.066667 0 23.893333l-136.533333 136.533333c0 3.413333-6.826667 3.413333-10.24 3.413334z" fill="#9b9b9b" p-id="33426"></path><path d="M870.4 887.466667c-3.413333 0-10.24 0-13.653333-3.413334l-136.533334-136.533333c-6.826667-6.826667-6.826667-17.066667 0-23.893333s17.066667-6.826667 23.893334 0l136.533333 136.533333c6.826667 6.826667 6.826667 17.066667 0 23.893333 0 3.413333-6.826667 3.413333-10.24 3.413334z" fill="#9b9b9b" p-id="33427"></path><path d="M802.133333 1024c-122.88 0-221.866667-98.986667-221.866666-221.866667s98.986667-221.866667 221.866666-221.866666 221.866667 98.986667 221.866667 221.866666-98.986667 221.866667-221.866667 221.866667z m0-409.6c-102.4 0-187.733333 85.333333-187.733333 187.733333s85.333333 187.733333 187.733333 187.733334 187.733333-85.333333 187.733334-187.733334-85.333333-187.733333-187.733334-187.733333z" fill="#9b9b9b" p-id="33428"></path></svg>