<svg t="1586873870625" class="icon" viewBox="0 0 1024 1024" version="1.1" xmlns="http://www.w3.org/2000/svg" p-id="1504" width="200" height="200"><path d="M533.333333 85.333333c-247.426667 0-448 200.573333-448 448s200.573333 448 448 448 448-200.573333 448-448-200.573333-448-448-448z m0 853.333334c-223.86 0-405.333333-181.473333-405.333333-405.333334s181.473333-405.333333 405.333333-405.333333 405.333333 181.473333 405.333334 405.333333-181.473333 405.333333-405.333334 405.333334z m170.666667-213.333334a21.266667 21.266667 0 0 1-15.086667-6.246666L533.333333 563.5l-155.58 155.586667a21.333333 21.333333 0 0 1-30.173333-30.173334L503.166667 533.333333 347.58 377.753333a21.333333 21.333333 0 0 1 30.173333-30.173333L533.333333 503.166667l155.58-155.586667a21.333333 21.333333 0 1 1 30.173334 30.173333L563.5 533.333333l155.586667 155.58A21.333333 21.333333 0 0 1 704 725.333333z" fill="#9B9B9B" p-id="1505"></path></svg>