<svg xmlns="http://www.w3.org/2000/svg" data-name="Layer 1" viewBox="0 0 100 125" fill="#9B9B9B"><path d="M50.5 65.6H26.8a15.5 15.5 0 114.7-30.3 1.5 1.5 0 001.9-1 17.5 17.5 0 0134.3 2.2 1.5 1.5 0 001.6 1.3h1.2A13.9 13.9 0 0182.8 45a1.5 1.5 0 002.6-1.4 16.9 16.9 0 00-14.9-9A20.5 20.5 0 0031 32a18.5 18.5 0 10-4.1 36.5h23.7a1.5 1.5 0 000-3z"/><path d="M86.6 48.6H63.8a6.5 6.5 0 00-6.5 6.5v22.8a6.5 6.5 0 006.5 6.5h22.8a6.5 6.5 0 006.5-6.5V55.1a6.5 6.5 0 00-6.5-6.5zm3.5 29.3a3.5 3.5 0 01-3.5 3.5H63.8a3.5 3.5 0 01-3.5-3.5V55.1a3.5 3.5 0 013.5-3.5h22.8a3.5 3.5 0 013.5 3.5z"/><path d="M81.9 59.8a1.5 1.5 0 00-2.1 0l-4.6 4.6-4.6-4.6a1.5 1.5 0 00-2.1 2.1l4.6 4.6-4.6 4.6a1.5 1.5 0 102.1 2.1l4.6-4.6 4.6 4.6a1.5 1.5 0 002.1-2.1l-4.6-4.6 4.6-4.6a1.5 1.5 0 000-2z"/></svg>