<svg xmlns="http://www.w3.org/2000/svg" data-name="Layer 1" viewBox="0 0 100 125" x="0px" y="0px" fill="#9B9B9B"><title>Artboard 26</title><path d="M50.52,65.56H26.78a15.48,15.48,0,1,1,4.67-30.24,1.5,1.5,0,0,0,1.91-1.08,17.46,17.46,0,0,1,34.37,2.25,1.49,1.49,0,0,0,1.62,1.34c.39,0,.78-.06,1.18-.06a13.88,13.88,0,0,1,12.27,7.36,1.5,1.5,0,0,0,2.65-1.41,16.88,16.88,0,0,0-14.91-8.95h0A20.47,20.47,0,0,0,30.85,32a18.48,18.48,0,1,0-4.07,36.51H50.52a1.5,1.5,0,0,0,0-3Z"/><path d="M86.64,48.56H63.77a6.51,6.51,0,0,0-6.5,6.5V77.94a6.51,6.51,0,0,0,6.5,6.5H86.64a6.51,6.51,0,0,0,6.5-6.5V55.06A6.51,6.51,0,0,0,86.64,48.56Zm3.5,29.38a3.5,3.5,0,0,1-3.5,3.5H63.77a3.5,3.5,0,0,1-3.5-3.5V55.06a3.5,3.5,0,0,1,3.5-3.5H86.64a3.5,3.5,0,0,1,3.5,3.5Z"/><path d="M81.9,59.81a1.5,1.5,0,0,0-2.12,0l-4.58,4.58-4.58-4.58a1.5,1.5,0,0,0-2.12,2.12l4.58,4.58-4.58,4.58a1.5,1.5,0,1,0,2.12,2.12l4.58-4.58,4.58,4.58a1.5,1.5,0,0,0,2.12-2.12L77.33,66.5l4.58-4.58A1.5,1.5,0,0,0,81.9,59.81Z"/></svg>