<svg xmlns="http://www.w3.org/2000/svg" fill="none" viewBox="0 0 131 42">  <path fill="#fff" stroke="#000" d="M.5.5H116c8 0 14.5 6.5 14.5 14.5v26.5H15C7 41.5.5 35 .5 27V.5Z"/>  <path fill="#000" d="M17.96 24.16a9.45 9.45 0 0 0 11.89 0l-1.34-1.66a7.32 7.32 0 0 1-9.2 0l-1.35 1.66Zm1.44-3.65v-2.87h2.13v2.87H19.4Zm6.61-2.87v2.87h2.13v-2.87h-2.13Z"/>  <path fill="#000" fill-rule="evenodd" d="M35 21.5a11.5 11.5 0 1 1-23 0 11.5 11.5 0 0 1 23 0Zm-2.13 0a9.37 9.37 0 1 1-18.74 0 9.37 9.37 0 0 1 18.74 0Z" clip-rule="evenodd"/>  <path fill="#000" d="M42.98 9.9 44 13.87l1.03-3.97h1l1.04 3.94 1.08-3.94h.9l-1.54 5.03h-.93l-1.08-3.9-1.04 3.9h-.93L42 9.9h.98Zm6.84 0h.84v.87c.07-.17.24-.38.51-.62a1.35 1.35 0 0 1 1.02-.36l.2.02v.89a1.38 1.38 0 0 0-.29-.02c-.45 0-.8.13-1.03.41-.24.27-.36.59-.36.95v2.9h-.9V9.9Zm3.25.02h.9v5.01h-.9V9.92Zm0-1.9h.9v.96h-.9v-.96Zm2.33.47h.9v1.4h.85v.7h-.85v3.29c0 .17.06.29.19.35.07.03.18.05.35.05h.14l.17-.01v.66l-.32.07-.36.01c-.42 0-.7-.1-.85-.3a1.3 1.3 0 0 1-.22-.79V10.6h-.72v-.7h.72V8.5Zm2.72 0h.9v1.4h.85v.7h-.85v3.29c0 .17.07.29.2.35.06.03.18.05.34.05h.14l.17-.01v.66l-.32.07-.36.01c-.41 0-.7-.1-.85-.3a1.3 1.3 0 0 1-.22-.79V10.6h-.72v-.7h.72V8.5Zm4.75 1.29c.38 0 .74.09 1.1.26a1.98 1.98 0 0 1 1.16 1.54c.05.23.08.6.08 1.1h-3.89c.02.52.15.93.38 1.24.24.3.6.46 1.1.46.47 0 .84-.15 1.12-.44.16-.17.27-.36.34-.59h.88c-.03.19-.1.4-.24.62a2.11 2.11 0 0 1-1.44 1.06c-.21.06-.46.08-.73.08a2.3 2.3 0 0 1-1.67-.68 2.6 2.6 0 0 1-.7-1.92c0-.8.24-1.46.7-1.97.46-.5 1.07-.76 1.81-.76Zm1.42 2.23a2.11 2.11 0 0 0-.25-.88c-.24-.4-.65-.6-1.22-.6-.41 0-.75.13-1.03.42-.28.27-.43.63-.44 1.06h2.94ZM66.2 9.9h.85v.71a2.23 2.23 0 0 1 1.74-.83c.75 0 1.26.25 1.52.75.15.27.22.66.22 1.17v3.23h-.9v-3.17c0-.3-.05-.56-.15-.74-.16-.32-.45-.47-.86-.47-.21 0-.39.02-.52.06-.25.07-.46.2-.65.41-.14.17-.24.34-.29.52-.04.17-.06.43-.06.76v2.63h-.9V9.9ZM74.4 8h.87v2.5a2.03 2.03 0 0 1 1.58-.74c.66 0 1.2.22 1.6.65.41.43.62 1.07.62 1.9 0 .8-.2 1.47-.6 2-.41.52-.98.78-1.7.78-.4 0-.74-.09-1.02-.27a2.4 2.4 0 0 1-.53-.53v.64h-.82V8Zm2.32 6.35c.48 0 .84-.19 1.08-.55.24-.36.36-.84.36-1.44 0-.53-.12-.97-.36-1.32a1.2 1.2 0 0 0-1.06-.52c-.4 0-.76.14-1.07.43-.3.29-.45.76-.45 1.41 0 .47.06.86.19 1.15.23.56.67.84 1.3.84Zm6.61-4.45h.98l-.84 2.2-.8 2.12a13.98 13.98 0 0 1-1.1 2.36c-.2.28-.57.42-1.09.42a2.31 2.31 0 0 1-.54-.07v-.77a3.23 3.23 0 0 0 .52.1c.17 0 .29-.03.37-.09a.69.69 0 0 0 .2-.19l.17-.38.22-.52-1.96-5.18h1.01L81.9 14l1.43-4.1ZM87.7 8h.9v2.58c.2-.26.4-.43.56-.54a2 2 0 0 1 1.08-.27c.77 0 1.29.26 1.56.77.15.28.23.67.23 1.16v3.23h-.92v-3.17c0-.37-.05-.64-.15-.81-.16-.28-.46-.42-.91-.42-.37 0-.7.12-1 .36-.3.24-.46.7-.46 1.37v2.67h-.89V8Zm6.44 1.9v3.34c0 .26.04.47.13.63.15.3.45.45.88.45.62 0 1.05-.26 1.27-.79a3 3 0 0 0 .18-1.16V9.9h.9v5.03h-.85l.01-.74c-.11.2-.26.35-.43.49-.34.26-.75.4-1.24.4-.75 0-1.27-.25-1.54-.73-.15-.26-.22-.6-.22-1.03V9.9h.9Zm4.65 0h.88v.71c.21-.25.4-.43.58-.54.29-.2.62-.29 1-.29.42 0 .76.1 1.02.3.14.11.27.28.4.5a1.88 1.88 0 0 1 1.59-.8c.71 0 1.2.25 1.46.74.14.26.2.61.2 1.06v3.35H105v-3.5c0-.33-.1-.56-.27-.69a1.08 1.08 0 0 0-.64-.19c-.35 0-.66.12-.9.34-.26.22-.38.6-.38 1.11v2.93h-.91v-3.28c0-.35-.04-.6-.13-.75-.13-.24-.39-.35-.76-.35-.33 0-.64.12-.92.37-.27.24-.41.7-.41 1.34v2.67h-.9V9.9Zm9.03 3.7c0 .24.1.43.28.57.19.14.41.21.67.21.31 0 .62-.06.91-.2.5-.23.74-.6.74-1.13v-.68c-.1.07-.25.12-.42.17l-.5.09-.54.07c-.33.04-.57.1-.73.19a.74.74 0 0 0-.41.7Zm2.16-1.72c.2-.02.34-.1.4-.24a.72.72 0 0 0 .07-.33c0-.29-.11-.5-.33-.62a1.7 1.7 0 0 0-.93-.2c-.46 0-.8.12-.99.36-.1.13-.18.32-.2.58h-.84c.02-.62.23-1.05.63-1.29.41-.24.89-.37 1.42-.37a3 3 0 0 1 1.52.34c.39.23.58.58.58 1.06v2.9c0 .09.02.16.06.21.04.05.12.08.24.08a2.14 2.14 0 0 0 .3-.03v.63l-.32.07-.3.01c-.3 0-.53-.1-.67-.3a1.16 1.16 0 0 1-.15-.47 2.52 2.52 0 0 1-1.9.84c-.5 0-.9-.15-1.22-.43a1.4 1.4 0 0 1-.46-1.07c0-.46.15-.83.46-1.08.3-.26.7-.42 1.2-.48l1.43-.17Zm2.7-1.98h.84v.71c.26-.3.52-.5.8-.63s.6-.2.94-.2c.75 0 1.26.25 1.52.75.15.27.22.66.22 1.17v3.23h-.9v-3.17c0-.3-.05-.56-.15-.74-.16-.32-.45-.47-.86-.47-.21 0-.39.02-.52.06-.24.07-.46.2-.64.41-.15.17-.25.34-.3.52-.04.17-.06.43-.06.76v2.63h-.9V9.9Z"/>  <path fill="#000" fill-rule="evenodd" d="M93.33 32.09 97.95 19h3.06l4.58 13.09h-2.93l-.83-2.7h-4.78l-.9 2.7h-2.82Zm6.12-10.1-1.67 5.15h3.29l-1.62-5.15Zm-21.85.21a3.5 3.5 0 0 1 2.95 1.37 5.6 5.6 0 0 1 1.08 3.55 6.3 6.3 0 0 1-1.06 3.74 3.4 3.4 0 0 1-2.94 1.48c-.8 0-1.43-.16-1.9-.48-.3-.19-.6-.52-.94-1v1.23h-2.45V19.02h2.5v4.65a3.08 3.08 0 0 1 2.77-1.47Zm-.64 8.06a1.7 1.7 0 0 0 1.5-.8c.36-.52.54-1.21.54-2.07 0-.69-.09-1.26-.26-1.7-.34-.86-.95-1.28-1.85-1.28-.9 0-1.53.41-1.87 1.25a4.74 4.74 0 0 0-.26 1.72c0 .83.18 1.52.54 2.06.36.54.92.82 1.66.82Z" clip-rule="evenodd"/><path fill="#000" d="M66.52 30.16c-.1-.1-.15-.35-.15-.75V24.3h1.56v-1.8h-1.56v-2.7H63.9v2.7h-1.34v1.8h1.34v5.96c0 .6.14 1.05.42 1.34.43.45 1.24.66 2.42.62l1.19-.05v-1.89l-.26.02h-.23c-.51 0-.82-.05-.92-.14Z"/><path fill="#000" fill-rule="evenodd" d="M62.46 27.26c0 1.43-.4 2.64-1.2 3.65-.82 1-2.04 1.51-3.7 1.51-1.64 0-2.86-.5-3.67-1.5a5.66 5.66 0 0 1-1.22-3.66c0-1.4.4-2.6 1.22-3.63.8-1.02 2.03-1.53 3.68-1.53 1.65 0 2.87.51 3.68 1.53a5.68 5.68 0 0 1 1.21 3.63Zm-4.9 3.04c.73 0 1.3-.26 1.69-.79.39-.53.59-1.27.59-2.25 0-.97-.2-1.71-.6-2.23-.39-.53-.95-.8-1.68-.8a2 2 0 0 0-1.7.8 3.66 3.66 0 0 0-.58 2.23c0 .98.2 1.72.58 2.25a2 2 0 0 0 1.7.8Z" clip-rule="evenodd"/><path fill="#000" d="M48.29 22.18c.99 0 1.8.26 2.42.79.64.52.95 1.39.95 2.6v6.52H49.1v-5.9c0-.5-.07-.89-.2-1.16-.25-.5-.72-.75-1.41-.75-.85 0-1.43.37-1.75 1.1-.16.38-.24.87-.24 1.47v5.24H43v-9.66h2.42v1.4c.32-.49.62-.85.91-1.07a3.17 3.17 0 0 1 1.96-.58Zm35.12 11.78-.32-.02v2.02a10.13 10.13 0 0 0 1.15.04c1.1 0 1.84-.22 2.21-.67.37-.43.87-1.57 1.5-3.4l3.29-9.52h-2.66l-1.98 7.14-2.1-7.14h-2.78l3.52 10.1c.02.07-.03.27-.16.59-.12.32-.26.53-.4.63-.16.1-.34.17-.57.2a3.9 3.9 0 0 1-.7.03Zm24.49-4.1v-8.63h-1.6V19h5.7v2.23h-1.41v8.63H112v2.23h-5.7v-2.23h1.6Z"/>
</svg>
