<svg class="icon" viewBox="0 0 1024 1024" xmlns="http://www.w3.org/2000/svg" width="200" height="200"><path d="M965 0H59C26 0 0 26 0 58v907a59 59 0 0059 59h906a59 59 0 0059-59V58c0-32-26-58-59-58z" fill="#CCC"/><path d="M928 192H64v736a32 32 0 0032 32h832a32 32 0 0032-32V192h-32zM736 64H96a32 32 0 000 64h640a32 32 0 000-64zm96 0a32 32 0 100 64 32 32 0 000-64zm96 0a32 32 0 100 64 32 32 0 000-64z" fill="#FFF"/><path d="M359 568h-47v39h-31l74-127h-53l-78 132v39h88v53h47v-53h25v-44h-25v-39zm153-88c-32 0-56 10-72 30-16 21-24 48-24 82s8 61 24 81c16 21 40 31 72 31s57-10 72-31c16-20 24-47 24-81s-8-61-24-82c-15-20-40-30-72-30zm35 164c-8 14-19 20-35 20s-27-6-34-20c-7-13-11-30-11-52s4-39 11-53c7-13 19-19 34-19s27 6 35 19c7 14 11 31 11 53s-4 39-11 52zm228-37v-39h-47v39h-31l74-127h-53l-78 132v39h88v53h47v-53h25v-44h-25z" fill="#ED7161"/></svg>