<svg t="1586874538355" class="icon" viewBox="0 0 1024 1024" version="1.1" xmlns="http://www.w3.org/2000/svg" p-id="1903" width="200" height="200"><path d="M215.521 508.711l184.331 49.251c2.284 0.62 4.576 0.891 6.833 0.891 11.625 0 22.247-7.713 25.406-19.463 3.761-14.002-4.58-28.403-18.613-32.151l-184.331-49.255c-13.984-3.747-28.471 4.543-32.244 18.562-3.747 14.012 4.586 28.428 18.618 32.172zM215.521 639.977l184.331 49.251c2.284 0.62 4.576 0.891 6.833 0.891 11.625 0 22.247-7.713 25.406-19.463 3.761-14.002-4.58-28.403-18.613-32.151l-184.331-49.255c-13.984-3.716-28.471 4.543-32.244 18.572-3.747 14.002 4.586 28.421 18.618 32.16zM617.312 690.136c2.257 0 4.544-0.286 6.833-0.891l184.331-49.251c14.055-3.747 22.378-18.156 18.613-32.151-3.771-14.026-18.201-22.311-32.244-18.572l-184.322 49.255c-14.055 3.735-22.378 18.154-18.626 32.151 3.164 11.738 13.783 19.46 25.411 19.46zM215.521 377.419l184.331 49.251c2.284 0.62 4.576 0.91 6.833 0.91 11.625 0 22.247-7.729 25.406-19.471 3.761-14.002-4.58-28.403-18.613-32.151l-184.331-49.255c-13.984-3.771-28.471 4.543-32.244 18.562-3.747 14.012 4.586 28.428 18.618 32.172zM617.312 558.858c2.257 0 4.544-0.286 6.833-0.891l184.331-49.251c14.055-3.747 22.378-18.156 18.613-32.16-3.771-14.025-18.201-22.329-32.244-18.562l-184.322 49.255c-14.055 3.735-22.378 18.154-18.626 32.151 3.164 11.738 13.783 19.46 25.411 19.46zM923.004 119.299c-6.481-5.004-15.011-6.722-22.836-4.544l-388.169 103.714-388.169-103.714c-7.814-2.158-16.355-0.451-22.83 4.544-6.505 4.949-10.308 12.663-10.308 20.812v630.143c0 11.872 7.995 22.285 19.511 25.359l394.986 105.533c2.235 0.62 4.517 0.91 6.807 0.91s4.581-0.287 6.81-0.91l394.983-105.533c11.519-3.085 19.529-13.482 19.529-25.359v-630.143c0.001-8.144-3.792-15.877-10.308-20.812zM485.668 841.566l-342.322-91.461v-575.773l342.322 91.461v575.773zM880.66 750.097l-342.322 91.461v-575.773l342.322-91.461v575.773zM617.312 427.582c2.257 0 4.544-0.287 6.833-0.91l184.331-49.251c14.055-3.747 22.378-18.156 18.613-32.16-3.771-14.025-18.201-22.355-32.244-18.562l-184.322 49.255c-14.055 3.735-22.378 18.154-18.626 32.151 3.164 11.738 13.783 19.463 25.411 19.463z" p-id="1904" fill="#9B9B9B"></path></svg>