<?xml version="1.0" encoding="UTF-8"?>
<svg width="800px" height="800px" viewBox="0 0 800 800" version="1.1" xmlns="http://www.w3.org/2000/svg" xmlns:xlink="http://www.w3.org/1999/xlink">
    <!-- Generator: Sketch 47.1 (45422) - http://www.bohemiancoding.com/sketch -->
    <title>PWA</title>
    <desc>Created with Sketch.</desc>
    <defs></defs>
    <g id="Page-1" stroke="none" stroke-width="1" fill="none" fill-rule="evenodd">
        <g id="Artboard" transform="translate(-1613.000000, -688.000000)" fill-rule="nonzero" fill="#DB9E36">
            <g id="PWA" transform="translate(1613.000000, 688.000000)">
                <g id="Group" transform="translate(400.000000, 400.000000) scale(-1, 1) rotate(-180.000000) translate(-400.000000, -400.000000) ">
                    <path d="M200,0 L600,0 L600,0 C710.45695,-2.02906125e-14 800,89.54305 800,200 L800,600 L800,600 C800,710.45695 710.45695,800 600,800 L200,800 L200,800 C89.54305,800 -2.70690019e-13,710.45695 -2.84217094e-13,600 L-2.84217094e-13,200 L-2.84217094e-13,200 C-2.97744169e-13,89.54305 89.54305,2.02906125e-14 200,0 Z M160.5,540 C176.6,537.6 189.3,533.1 201.2,525.4 C209.1,520.4 220.5,509.2 223.5,503.6 L225.3,500.2 L202.7,430.4 C190.2,392 179.6,360.2 179.2,359.9 C178.8,359.5 175.1,358.4 171,357.4 C165,356.1 156.8,355.6 129.3,355.3 L95,354.8 L95,306.4 L95,258 L59,258 L23,258 L23,399.5 L23,541 L88.3,541 C126.5,541 156.4,540.5 160.5,540 Z M95,448 L95,410 L108.8,410 C143.1,410.1 155,414.2 162,428.3 C169.6,444 167,465.2 156,475.9 C148.3,483.4 136.4,486 110.4,486 L95,486 L95,448 Z M442.8,449.8 L470.4,359 L509.3,450 L548.2,541 L586.1,541 C606.9,541 624,540.7 624,540.3 C624,539.8 598.5,476.2 567.3,398.8 L510.5,258 L472.6,258.3 L434.7,258.5 L409.6,338.7 C395.7,382.8 384.2,419.1 383.9,419.4 C383.6,419.7 371.5,383.6 356.9,339.2 L330.4,258.5 L292.5,258.5 L254.6,258.5 L235.4,291.4 L216.2,324.3 L218.6,331.4 C219.9,335.3 227.3,358.1 235,382 C242.8,405.9 250.3,429 251.6,433.3 C253,437.5 254.5,441 254.8,441 C255.2,441 264.7,422.6 276,400 C287.2,377.5 296.5,359.2 296.7,359.3 C296.8,359.5 308.6,395.6 323,439.5 C337.3,483.5 350.7,524.3 352.6,530.3 L356.2,541 L385.7,540.8 L415.2,540.5 L442.8,449.8 Z M722.9,399.7 C752.1,322.2 776,258.7 776,258.4 C776,258.2 758.2,258.1 736.4,258.2 L696.7,258.5 L689.4,279 C685.3,290.3 681.3,301.4 680.4,303.8 L678.8,308 L627.9,308 C599.9,308 577,308.3 577,308.8 C577.1,309.2 581.9,321.7 587.8,336.5 L598.5,363.5 L629.8,363.8 C646.9,363.9 661,364.2 661,364.4 C661,364.6 654.5,383 646.5,405.2 C638.5,427.5 632,446.2 632,446.8 C632,447.7 664.3,530.2 668,538.9 C668.6,540.2 669.2,541.1 669.4,540.9 C669.6,540.7 693.7,477.1 722.9,399.7 Z" id="Shape"></path>
                </g>
            </g>
        </g>
    </g>
</svg>