<svg xmlns="http://www.w3.org/2000/svg" version="1.1" viewBox="0 0 8000 8000">
<g transform="translate(0 8e3) scale(.1 -.1)" fill="#b30309">
<rect x="18000" y="18000" width="45000" height="45000" fill="#ffc107"/>
<rect x="35000" y="-22000" width="45000" height="45000" transform="rotate(45)" fill="#ffc107"/>
<path d="m39730 74861c-2167-1091-4101-2638-5710-4566-1532-1837-2733-3993-3520-6320-109-324-238-737-247-788-3-23 502-1864 1767-6437 975-3523 1773-6416 1775-6430 2-17 8-25 21-24 21 1 3495 1381 3505 1392 4 4-47 117-112 252-1092 2257-1975 5120-2303 7465-153 1094-165 1952-35 2630 299 1565 1104 3144 2265 4440 144 162 517 537 689 694 626 571 1265 1029 2018 1446l177 99v3143c0 1729-3 3142-7 3142-5 0-132-62-283-138zM39730 74861"/>
<path d="m39730 74861c-2167-1091-4101-2638-5710-4566-1532-1837-2733-3993-3520-6320-109-324-238-737-247-788-3-23 502-1864 1767-6437 975-3523 1773-6416 1775-6430 2-17 8-25 21-24 21 1 3495 1381 3505 1392 4 4-47 117-112 252-1092 2257-1975 5120-2303 7465-153 1094-165 1952-35 2630 299 1565 1104 3144 2265 4440 144 162 517 537 689 694 626 571 1265 1029 2018 1446l177 99v3143c0 1729-3 3142-7 3142-5 0-132-62-283-138zM39730 74861" transform="rotate(45 4e4 4e4)"/>
<path d="m39730 74861c-2167-1091-4101-2638-5710-4566-1532-1837-2733-3993-3520-6320-109-324-238-737-247-788-3-23 502-1864 1767-6437 975-3523 1773-6416 1775-6430 2-17 8-25 21-24 21 1 3495 1381 3505 1392 4 4-47 117-112 252-1092 2257-1975 5120-2303 7465-153 1094-165 1952-35 2630 299 1565 1104 3144 2265 4440 144 162 517 537 689 694 626 571 1265 1029 2018 1446l177 99v3143c0 1729-3 3142-7 3142-5 0-132-62-283-138zM39730 74861" transform="rotate(90 4e4 4e4)"/>
<path d="m39730 74861c-2167-1091-4101-2638-5710-4566-1532-1837-2733-3993-3520-6320-109-324-238-737-247-788-3-23 502-1864 1767-6437 975-3523 1773-6416 1775-6430 2-17 8-25 21-24 21 1 3495 1381 3505 1392 4 4-47 117-112 252-1092 2257-1975 5120-2303 7465-153 1094-165 1952-35 2630 299 1565 1104 3144 2265 4440 144 162 517 537 689 694 626 571 1265 1029 2018 1446l177 99v3143c0 1729-3 3142-7 3142-5 0-132-62-283-138zM39730 74861" transform="rotate(135 4e4 4e4)"/>
<path d="m39730 74861c-2167-1091-4101-2638-5710-4566-1532-1837-2733-3993-3520-6320-109-324-238-737-247-788-3-23 502-1864 1767-6437 975-3523 1773-6416 1775-6430 2-17 8-25 21-24 21 1 3495 1381 3505 1392 4 4-47 117-112 252-1092 2257-1975 5120-2303 7465-153 1094-165 1952-35 2630 299 1565 1104 3144 2265 4440 144 162 517 537 689 694 626 571 1265 1029 2018 1446l177 99v3143c0 1729-3 3142-7 3142-5 0-132-62-283-138zM39730 74861" transform="rotate(180 4e4 4e4)"/>
<path d="m39730 74861c-2167-1091-4101-2638-5710-4566-1532-1837-2733-3993-3520-6320-109-324-238-737-247-788-3-23 502-1864 1767-6437 975-3523 1773-6416 1775-6430 2-17 8-25 21-24 21 1 3495 1381 3505 1392 4 4-47 117-112 252-1092 2257-1975 5120-2303 7465-153 1094-165 1952-35 2630 299 1565 1104 3144 2265 4440 144 162 517 537 689 694 626 571 1265 1029 2018 1446l177 99v3143c0 1729-3 3142-7 3142-5 0-132-62-283-138zM39730 74861" transform="rotate(225 4e4 4e4)"/>
<path d="m39730 74861c-2167-1091-4101-2638-5710-4566-1532-1837-2733-3993-3520-6320-109-324-238-737-247-788-3-23 502-1864 1767-6437 975-3523 1773-6416 1775-6430 2-17 8-25 21-24 21 1 3495 1381 3505 1392 4 4-47 117-112 252-1092 2257-1975 5120-2303 7465-153 1094-165 1952-35 2630 299 1565 1104 3144 2265 4440 144 162 517 537 689 694 626 571 1265 1029 2018 1446l177 99v3143c0 1729-3 3142-7 3142-5 0-132-62-283-138zM39730 74861" transform="rotate(-90 4e4 4e4)"/>
<path d="m39730 74861c-2167-1091-4101-2638-5710-4566-1532-1837-2733-3993-3520-6320-109-324-238-737-247-788-3-23 502-1864 1767-6437 975-3523 1773-6416 1775-6430 2-17 8-25 21-24 21 1 3495 1381 3505 1392 4 4-47 117-112 252-1092 2257-1975 5120-2303 7465-153 1094-165 1952-35 2630 299 1565 1104 3144 2265 4440 144 162 517 537 689 694 626 571 1265 1029 2018 1446l177 99v3143c0 1729-3 3142-7 3142-5 0-132-62-283-138zM39730 74861" transform="rotate(-45 4e4 4e4)"/>
<path d="m39730 74861c-2167-1091-4101-2638-5710-4566-1532-1837-2733-3993-3520-6320-109-324-238-737-247-788-3-23 502-1864 1767-6437 975-3523 1773-6416 1775-6430 2-17 8-25 21-24 21 1 3495 1381 3505 1392 4 4-47 117-112 252-1092 2257-1975 5120-2303 7465-153 1094-165 1952-35 2630 299 1565 1104 3144 2265 4440 144 162 517 537 689 694 626 571 1265 1029 2018 1446l177 99v3143c0 1729-3 3142-7 3142-5 0-132-62-283-138zM39730 74861" transform="translate(8e4) scale(-1 1)"/>
<path d="m39730 74861c-2167-1091-4101-2638-5710-4566-1532-1837-2733-3993-3520-6320-109-324-238-737-247-788-3-23 502-1864 1767-6437 975-3523 1773-6416 1775-6430 2-17 8-25 21-24 21 1 3495 1381 3505 1392 4 4-47 117-112 252-1092 2257-1975 5120-2303 7465-153 1094-165 1952-35 2630 299 1565 1104 3144 2265 4440 144 162 517 537 689 694 626 571 1265 1029 2018 1446l177 99v3143c0 1729-3 3142-7 3142-5 0-132-62-283-138zM39730 74861" transform="translate(8e4) scale(-1 1) rotate(45 4e4 4e4)"/>
<path d="m39730 74861c-2167-1091-4101-2638-5710-4566-1532-1837-2733-3993-3520-6320-109-324-238-737-247-788-3-23 502-1864 1767-6437 975-3523 1773-6416 1775-6430 2-17 8-25 21-24 21 1 3495 1381 3505 1392 4 4-47 117-112 252-1092 2257-1975 5120-2303 7465-153 1094-165 1952-35 2630 299 1565 1104 3144 2265 4440 144 162 517 537 689 694 626 571 1265 1029 2018 1446l177 99v3143c0 1729-3 3142-7 3142-5 0-132-62-283-138zM39730 74861" transform="translate(8e4) scale(-1 1) rotate(90 4e4 4e4)"/>
<path d="m39730 74861c-2167-1091-4101-2638-5710-4566-1532-1837-2733-3993-3520-6320-109-324-238-737-247-788-3-23 502-1864 1767-6437 975-3523 1773-6416 1775-6430 2-17 8-25 21-24 21 1 3495 1381 3505 1392 4 4-47 117-112 252-1092 2257-1975 5120-2303 7465-153 1094-165 1952-35 2630 299 1565 1104 3144 2265 4440 144 162 517 537 689 694 626 571 1265 1029 2018 1446l177 99v3143c0 1729-3 3142-7 3142-5 0-132-62-283-138zM39730 74861" transform="translate(8e4) scale(-1 1) rotate(135 4e4 4e4)"/>
<path d="m39730 74861c-2167-1091-4101-2638-5710-4566-1532-1837-2733-3993-3520-6320-109-324-238-737-247-788-3-23 502-1864 1767-6437 975-3523 1773-6416 1775-6430 2-17 8-25 21-24 21 1 3495 1381 3505 1392 4 4-47 117-112 252-1092 2257-1975 5120-2303 7465-153 1094-165 1952-35 2630 299 1565 1104 3144 2265 4440 144 162 517 537 689 694 626 571 1265 1029 2018 1446l177 99v3143c0 1729-3 3142-7 3142-5 0-132-62-283-138zM39730 74861" transform="translate(8e4) scale(-1 1) rotate(180 4e4 4e4)"/>
<path d="m39730 74861c-2167-1091-4101-2638-5710-4566-1532-1837-2733-3993-3520-6320-109-324-238-737-247-788-3-23 502-1864 1767-6437 975-3523 1773-6416 1775-6430 2-17 8-25 21-24 21 1 3495 1381 3505 1392 4 4-47 117-112 252-1092 2257-1975 5120-2303 7465-153 1094-165 1952-35 2630 299 1565 1104 3144 2265 4440 144 162 517 537 689 694 626 571 1265 1029 2018 1446l177 99v3143c0 1729-3 3142-7 3142-5 0-132-62-283-138zM39730 74861" transform="translate(8e4) scale(-1 1) rotate(225 4e4 4e4)"/>
<path d="m39730 74861c-2167-1091-4101-2638-5710-4566-1532-1837-2733-3993-3520-6320-109-324-238-737-247-788-3-23 502-1864 1767-6437 975-3523 1773-6416 1775-6430 2-17 8-25 21-24 21 1 3495 1381 3505 1392 4 4-47 117-112 252-1092 2257-1975 5120-2303 7465-153 1094-165 1952-35 2630 299 1565 1104 3144 2265 4440 144 162 517 537 689 694 626 571 1265 1029 2018 1446l177 99v3143c0 1729-3 3142-7 3142-5 0-132-62-283-138zM39730 74861" transform="translate(8e4) scale(-1 1) rotate(-90 4e4 4e4)"/>
<path d="m39730 74861c-2167-1091-4101-2638-5710-4566-1532-1837-2733-3993-3520-6320-109-324-238-737-247-788-3-23 502-1864 1767-6437 975-3523 1773-6416 1775-6430 2-17 8-25 21-24 21 1 3495 1381 3505 1392 4 4-47 117-112 252-1092 2257-1975 5120-2303 7465-153 1094-165 1952-35 2630 299 1565 1104 3144 2265 4440 144 162 517 537 689 694 626 571 1265 1029 2018 1446l177 99v3143c0 1729-3 3142-7 3142-5 0-132-62-283-138zM39730 74861" transform="translate(8e4) scale(-1 1) rotate(-45 4e4 4e4)"/>
<circle cx="40000" cy="40000" r="6000" fill="#fff"/>
</g>
</svg>