<svg xmlns="http://www.w3.org/2000/svg" xmlns:xlink="http://www.w3.org/1999/xlink" version="1.1" x="0px" y="0px" viewBox="0 0 100 125" enable-background="new 0 0 100 100" xml:space="preserve"><path d="M82.492,64.172c-0.187,0.78-0.564,1.499-0.836,2.25c-0.293,0.744-0.574,1.492-0.973,2.188l-1.109,2.121l-1.307,2.002  c-3.615,5.24-8.732,9.38-14.542,11.791c-0.362,0.152-0.715,0.328-1.084,0.461l-1.123,0.362c-0.753,0.223-1.483,0.524-2.252,0.683  l-2.301,0.493c-0.761,0.191-1.555,0.196-2.328,0.308c-1.55,0.253-3.124,0.159-4.686,0.203c-0.78-0.032-1.557-0.131-2.335-0.191  c-0.781-0.039-1.547-0.19-2.313-0.342c-1.547-0.225-3.031-0.72-4.527-1.144c-1.446-0.579-2.918-1.094-4.279-1.856  c-2.759-1.42-5.369-3.174-7.594-5.346c-2.232-2.15-4.233-4.559-5.777-7.25c-1.533-2.692-2.699-5.576-3.481-8.567  c-0.694-3.015-0.969-6.105-0.861-9.201c0.225-3.081,0.764-6.142,1.797-9.056c1.083-2.888,2.492-5.656,4.289-8.172  c1.845-2.478,4.009-4.709,6.432-6.631c2.479-1.851,5.194-3.364,8.065-4.512c2.903-1.074,5.937-1.741,9.023-2.05l0.04-0.004  c0.475-0.049,0.911-0.341,1.124-0.806c0.738-1.615,1.574-3.251,2.471-4.788c0.448-0.773,0.928-1.516,1.43-2.213  c0.321-0.448,0.675-0.879,1.022-1.23c0.219,0.145,0.436,0.32,0.647,0.51c0.43,0.388,0.827,0.853,1.188,1.355  c0.37,0.494,0.687,1.046,0.995,1.602c0.299,0.567,0.568,1.154,0.822,1.754l0.009,0.022c0.198,0.466,0.669,0.784,1.205,0.762  c1.007-0.041,2.133,0.006,3.197,0.109c1.076,0.106,2.143,0.28,3.189,0.522c1.045,0.243,2.055,0.584,3.026,0.992  c0.967,0.419,1.859,0.956,2.685,1.565l0.03,0.023c0.383,0.283,0.922,0.29,1.317-0.016c0.427-0.331,0.973-0.685,1.494-0.981  c0.531-0.301,1.08-0.567,1.639-0.794c0.887-0.36,1.805-0.606,2.722-0.709c0.138,0.571,0.245,1.203,0.312,1.804  c0.101,0.883,0.124,1.78,0.111,2.678c-0.046,1.798-0.294,3.602-0.715,5.371c-0.429,1.762-0.993,3.525-1.665,5.231  c-0.687,1.715-1.438,3.358-2.575,4.751c-2.221,2.817-5.638,4.742-9.292,5.013c-3.64,0.28-7.416-0.94-10.285-3.34  c2.716,2.556,6.483,4.108,10.321,3.961c3.839-0.111,7.581-1.974,10.12-4.913c1.303-1.457,2.205-3.222,2.98-4.936  c0.784-1.737,1.431-3.52,1.94-5.375c0.504-1.851,0.833-3.759,0.945-5.696c0.081-1.96,0.036-3.851-0.55-5.913  c-0.106-0.371-0.446-0.646-0.852-0.649l-0.065-0.001c-1.466-0.013-2.892,0.286-4.206,0.788c-0.658,0.25-1.296,0.541-1.911,0.871  c-0.388,0.211-0.757,0.434-1.128,0.674c-1.786-1.269-3.793-2.121-5.837-2.656c-1.152-0.295-2.317-0.513-3.489-0.656  c-0.892-0.104-1.772-0.16-2.68-0.18c-0.178-0.419-0.364-0.835-0.569-1.247c-0.349-0.654-0.713-1.306-1.159-1.924  c-0.436-0.622-0.928-1.221-1.513-1.767c-0.294-0.272-0.605-0.534-0.954-0.772c-0.172-0.12-0.358-0.234-0.551-0.343  c-0.23-0.113-0.348-0.195-0.737-0.321c-0.351-0.111-0.754-0.063-1.076,0.167l-0.015,0.011c-1.01,0.72-1.623,1.506-2.227,2.296  c-0.589,0.793-1.122,1.598-1.613,2.416c-0.848,1.41-1.601,2.834-2.321,4.303c-3.079,0.321-6.13,0.949-9.044,2.029  c-3.14,1.234-6.111,2.871-8.822,4.882c-2.657,2.082-5.031,4.506-7.057,7.207c-1.984,2.735-3.54,5.762-4.694,8.933  c-1.115,3.194-1.694,6.543-1.917,9.905c-0.106,3.369,0.211,6.75,0.988,10.036c0.854,3.267,2.174,6.396,3.886,9.294  c1.72,2.899,3.921,5.481,6.369,7.77c2.442,2.307,5.277,4.176,8.282,5.649c1.486,0.782,3.083,1.308,4.652,1.888  c1.62,0.425,3.224,0.911,4.888,1.119c0.824,0.143,1.647,0.283,2.485,0.309c0.834,0.047,1.666,0.131,2.499,0.145  c1.666-0.079,3.338-0.028,4.983-0.33c3.311-0.384,6.524-1.392,9.542-2.747c6.06-2.711,11.197-7.298,14.664-12.857l1.249-2.116  l1.04-2.223c0.374-0.728,0.628-1.506,0.894-2.278c0.244-0.779,0.591-1.523,0.748-2.326l0.562-2.377  c0.175-0.793,0.223-1.611,0.34-2.413l0.151-1.206c0.04-0.403,0.026-0.811,0.042-1.215l0.052-2.425  C83.976,57.921,83.507,61.124,82.492,64.172z"/><path d="M69.197,37.565c0.987,0.231,2.078,0.003,2.796-0.678c-0.502-0.057-0.936-0.051-1.359-0.1c-0.42-0.035-0.818-0.1-1.208-0.195  c-0.793-0.17-1.533-0.484-2.432-0.871c0.153,0.479,0.476,0.877,0.86,1.187C68.237,37.228,68.705,37.444,69.197,37.565z"/><path d="M58.827,33.843c-0.502-0.057-0.936-0.05-1.359-0.1c-0.42-0.035-0.818-0.1-1.208-0.195c-0.793-0.17-1.533-0.484-2.432-0.871  c0.153,0.479,0.476,0.877,0.86,1.187c0.383,0.32,0.852,0.536,1.344,0.657C57.017,34.753,58.109,34.525,58.827,33.843z"/><text x="0" y="115" fill="#000000" font-size="5px" font-weight="bold" font-family="'Helvetica Neue', Helvetica, Arial-Unicode, Arial, Sans-serif">Created by Alina Oleynik</text><text x="0" y="120" fill="#000000" font-size="5px" font-weight="bold" font-family="'Helvetica Neue', Helvetica, Arial-Unicode, Arial, Sans-serif">from the Noun Project</text></svg>